<?xml version="1.0" standalone="no"?>
<!DOCTYPE svg PUBLIC "-//W3C//DTD SVG 20010904//EN" "http://www.w3.org/TR/2001/REC-SVG-20010904/DTD/svg10.dtd">
<!-- Created using Krita: https://krita.org -->
<svg xmlns="http://www.w3.org/2000/svg" 
    xmlns:xlink="http://www.w3.org/1999/xlink"
    xmlns:krita="http://krita.org/namespaces/svg/krita"
    xmlns:sodipodi="http://sodipodi.sourceforge.net/DTD/sodipodi-0.dtd"
    width="192pt"
    height="153.6pt"
    viewBox="0 0 192 153.6">
<defs/>
<path id="shape0" fill="#000000" fill-rule="evenodd" stroke="#000000" stroke-width="0.3" stroke-linecap="square" stroke-linejoin="bevel" d="M99.4889 39.1545L71.7 39.3L71.85 48.75L72.4405 48.7384L73.0217 48.7323L73.5935 48.7316L74.156 48.7364L74.709 48.7466L75.2527 48.7622L75.787 48.7833L76.312 48.8099L76.8275 48.8418L77.3337 48.8792L77.8306 48.9221L78.318 48.9704L78.7961 49.0241L79.2648 49.0833L79.7241 49.148L80.1741 49.218L80.6147 49.2935L81.0459 49.3745L81.4678 49.4609L81.8802 49.5527L82.2833 49.65L82.6771 49.7527L83.0614 49.8609L83.4364 49.9745L83.802 50.0935L84.1582 50.218L84.5051 50.348L84.8426 50.4833L85.1707 50.6241L85.4895 50.7704L85.7988 50.9221L86.0988 51.0792L86.3895 51.2418L86.6707 51.4099L86.9426 51.5833L87.2051 51.7622L87.4582 51.9466L87.702 52.1364L87.9364 52.3316L88.1614 52.5323L88.3771 52.7384L88.5833 52.95L88.7802 53.167L88.9678 53.3895L89.1459 53.6173L89.3147 53.8507L89.4741 54.0895L89.6241 54.3337L89.7648 54.5833L89.8961 54.8384L90.018 55.099L90.1306 55.365L90.2337 55.6364L90.3275 55.9133L90.412 56.1956L90.487 56.4833L90.5527 56.7765L90.609 57.0752L90.656 57.3792L90.6935 57.6888L90.7217 58.0037L90.7405 58.3241L90.75 58.65L90.7547 58.9819L90.7594 59.3205L90.7639 59.6658L90.7684 60.0178L90.7729 60.3765L90.7772 60.7418L90.7815 61.1139L90.7857 61.4926L90.7898 61.8781L90.7938 62.2702L90.7978 62.669L90.8017 63.0745L90.8055 63.4867L90.8093 63.9056L90.8129 64.3311L90.8165 64.7634L90.82 65.2023L90.8235 65.648L90.8268 66.1003L90.8301 66.5593L90.8333 67.025L90.8365 67.4974L90.8395 67.9765L90.8425 68.4622L90.8454 68.9547L90.8483 69.4539L90.851 69.9597L90.8537 70.4722L90.8563 70.9914L90.8588 71.5173L90.8613 72.0499L90.8637 72.5892L90.866 73.1352L90.8682 73.6879L90.8704 74.2472L90.8724 74.8133L90.8744 75.386L90.8764 75.9654L90.8782 76.5515L90.88 77.1443L90.8817 77.7438L90.8833 78.35L90.8849 78.9629L90.8864 79.5824L90.8878 80.2087L90.8891 80.8416L90.8903 81.4812L90.8915 82.1275L90.8926 82.7806L90.8936 83.4402L90.8946 84.1066L90.8954 84.7797L90.8962 85.4595L90.8969 86.1459L90.8976 86.8391L90.8981 87.5389L90.8986 88.2454L90.8991 88.9586L90.8994 89.6785L90.8997 90.4051L90.8998 91.0742L90.8417 91.0742L90.8416 91.715L90.8415 92.333L90.8413 92.9289L90.8411 93.5032L90.8407 94.0564L90.8403 94.5892L90.8398 95.1021L90.8392 95.5957L90.8386 96.0706L90.8379 96.5274L90.8371 96.9666L90.8362 97.3888L90.8353 97.7947L90.8343 98.1847L90.8332 98.5594L90.832 98.9195L90.8307 99.2655L90.8294 99.5979L90.828 99.9175L90.8265 100.225L90.825 100.52L90.8234 100.804L90.8217 101.078L90.8199 101.341L90.818 101.595L90.8161 101.84L90.8141 102.077L90.812 102.306L90.8099 102.528L90.8077 102.744L90.8053 102.953L90.803 103.157L90.8005 103.356L90.798 103.551L90.7954 103.742L90.7927 103.93L90.7899 104.115L90.7871 104.298L90.7842 104.48L90.7812 104.662L90.7781 104.843L90.775 105.024L90.7718 105.206L90.7685 105.39L90.7651 105.576L90.7617 105.765L90.7582 105.957L90.7546 106.152L90.7509 106.352L90.7472 106.557L90.7434 106.768L90.7395 106.984L90.7355 107.208L90.7315 107.438L90.7273 107.677L90.7231 107.924L90.7189 108.179L90.7145 108.445L90.7101 108.721L90.7056 109.007L90.701 109.305L90.6964 109.615L90.6917 109.937L90.6822 110.263L90.6634 110.583L90.6352 110.898L90.5976 111.207L90.5507 111.511L90.4944 111.81L90.4287 112.103L90.3536 112.391L90.2692 112.673L90.1754 112.95L90.0722 113.222L89.9597 113.488L89.8378 113.748L89.7065 114.003L89.5658 114.253L89.4158 114.497L89.2564 114.736L89.0876 114.969L88.9094 115.197L88.7219 115.42L88.525 115.637L88.3187 115.848L88.1031 116.054L87.8781 116.255L87.6437 116.45L87.3999 116.64L87.1468 116.824L86.8843 117.003L86.6124 117.177L86.3311 117.345L86.0405 117.507L85.7405 117.665L85.4311 117.816L85.1124 117.963L84.7843 118.103L84.4468 118.239L84.0999 118.369L83.7437 118.493L83.3781 118.612L83.0031 118.726L82.6187 118.834L82.225 118.937L81.8219 119.034L81.4094 119.126L80.9876 119.212L80.5564 119.293L80.1158 119.369L79.6658 119.439L79.2065 119.503L78.7378 119.563L78.2597 119.616L77.7722 119.665L77.2754 119.707L76.7692 119.745L76.2536 119.777L75.7287 119.803L75.1944 119.824L74.6507 119.84L74.0976 119.85L73.5352 119.855L72.9634 119.854L72.3822 119.848L71.7917 119.837L71.6417 129.287L100.292 129.437L100.292 129.396L128.197 129.25L128.047 119.8L127.457 119.811L126.876 119.817L126.304 119.818L125.742 119.813L125.188 119.803L124.645 119.787L124.11 119.766L123.586 119.74L123.07 119.708L122.564 119.67L122.067 119.627L121.579 119.579L121.101 119.525L120.633 119.466L120.173 119.402L119.723 119.331L119.283 119.256L118.852 119.175L118.43 119.089L118.017 118.997L117.614 118.9L117.22 118.797L116.836 118.689L116.461 118.575L116.095 118.456L115.739 118.331L115.392 118.202L115.055 118.066L114.727 117.925L114.408 117.779L114.099 117.627L113.799 117.47L113.508 117.308L113.227 117.14L112.955 116.966L112.692 116.787L112.439 116.603L112.195 116.413L111.961 116.218L111.736 116.017L111.52 115.811L111.314 115.6L111.117 115.382L110.93 115.16L110.752 114.932L110.583 114.699L110.423 114.46L110.273 114.216L110.133 113.966L110.001 113.711L109.879 113.451L109.767 113.185L109.664 112.913L109.57 112.636L109.486 112.354L109.41 112.066L109.345 111.773L109.288 111.474L109.242 111.17L109.204 110.861L109.176 110.546L109.157 110.225L109.147 109.9L109.143 109.577L109.138 109.268L109.134 108.97L109.129 108.684L109.125 108.408L109.12 108.142L109.116 107.886L109.112 107.639L109.108 107.401L109.104 107.17L109.1 106.947L109.096 106.73L109.092 106.52L109.088 106.315L109.085 106.115L109.081 105.919L109.077 105.728L109.074 105.539L109.071 105.353L109.067 105.169L109.064 104.987L109.061 104.806L109.058 104.625L109.055 104.443L109.052 104.261L109.049 104.078L109.046 103.892L109.044 103.704L109.041 103.513L109.039 103.319L109.036 103.12L109.034 102.916L109.032 102.706L109.029 102.491L109.027 102.269L109.025 102.04L109.023 101.803L109.021 101.558L109.019 101.304L109.017 101.041L109.016 100.767L109.014 100.483L109.013 100.187L109.011 99.8803L109.01 99.5608L109.008 99.2283L109.007 98.8823L109.006 98.5222L109.005 98.1475L109.004 97.7575L109.003 97.3517L109.002 96.9294L109.001 96.4902L109.001 96.0335L109 95.5586L108.999 95.0649L108.999 94.552L108.998 94.0192L108.998 93.466L108.998 92.8917L108.998 92.2959L108.998 91.6778L108.997 91.037L108.939 91.037L108.94 90.7081L108.94 90.0579L108.94 89.4088L108.941 88.7608L108.941 88.1141L108.942 87.4688L108.942 86.8251L108.943 86.1831L108.944 85.543L108.945 84.905L108.946 84.2692L108.947 83.6357L108.948 83.0047L108.949 82.3763L108.95 81.7508L108.951 81.1281L108.953 80.5086L108.954 79.8924L108.956 79.2795L108.957 78.6702L108.959 78.0646L108.961 77.4628L108.963 76.8651L108.965 76.2715L108.967 75.6822L108.969 75.0974L108.971 74.5172L108.973 73.9417L108.975 73.3712L108.978 72.8057L108.98 72.2455L108.983 71.6906L108.985 71.1412L108.988 70.5975L108.991 70.0596L108.994 69.5277L108.997 69.0019L109 68.4824L109.003 67.9693L109.006 67.4628L109.009 66.963L109.012 66.4701L109.016 65.9843L109.019 65.5056L109.023 65.0342L109.026 64.5703L109.03 64.1141L109.034 63.6656L109.037 63.2251L109.041 62.7926L109.045 62.3684L109.049 61.9526L109.053 61.5454L109.058 61.1468L109.062 60.7571L109.066 60.3763L109.071 60.0047L109.075 59.6424L109.08 59.2896L109.084 58.9463L109.089 58.6128L109.099 58.287L109.117 57.9666L109.146 57.6516L109.183 57.3421L109.23 57.038L109.286 56.7394L109.352 56.4462L109.427 56.1584L109.512 55.8761L109.605 55.5992L109.709 55.3278L109.821 55.0618L109.943 54.8013L110.074 54.5462L110.215 54.2965L110.365 54.0523L110.524 53.8135L110.693 53.5802L110.871 53.3523L111.059 53.1298L111.256 52.9128L111.462 52.7013L111.678 52.4951L111.903 52.2945L112.137 52.0992L112.381 51.9094L112.634 51.7251L112.897 51.5462L113.168 51.3727L113.45 51.2047L113.74 51.0421L114.04 50.8849L114.35 50.7332L114.668 50.587L114.997 50.4462L115.334 50.3108L115.681 50.1809L116.037 50.0564L116.403 49.9373L116.778 49.8237L117.162 49.7156L117.556 49.6128L117.959 49.5156L118.371 49.4237L118.793 49.3373L119.224 49.2564L119.665 49.1809L120.115 49.1108L120.574 49.0462L121.043 48.987L121.521 48.9332L122.009 48.8849L122.505 48.8421L123.012 48.8047L123.527 48.7727L124.052 48.7462L124.586 48.7251L125.13 48.7094L125.683 48.6992L126.246 48.6945L126.817 48.6951L127.399 48.7013L127.989 48.7128L128.139 39.2628L99.4892 39.1128L99.4889 39.1545" sodipodi:nodetypes="ccccccccccccccccccccccccccccccccccccccccccccccccccccccccccccccccccccccccccccccccccccccccccccccccccccccccccccccccccccccccccccccccccccccccccccccccccccccccccccccccccccccccccccccccccccccccccccccccccccccccccccccccccccccccccccccccccccccccccccccccccccccccccccccccccccccccccccccccccccccccccccccccccccccccccccccccccccccccccccccccccccccccccccccccccccccccccccccccccccccccccccccccccccccccccccccccccccccccccccccccccccccccccccccccccccccccccccccccccccccccccccccccccccccccccccccccccccccccccccccccccccccccccccccccccccccccccccccccc"/>
</svg>
