<?xml version="1.0" standalone="no"?>
<!DOCTYPE svg PUBLIC "-//W3C//DTD SVG 20010904//EN" "http://www.w3.org/TR/2001/REC-SVG-20010904/DTD/svg10.dtd">
<!-- Created using Krita: https://krita.org -->
<svg xmlns="http://www.w3.org/2000/svg" 
    xmlns:xlink="http://www.w3.org/1999/xlink"
    xmlns:krita="http://krita.org/namespaces/svg/krita"
    xmlns:sodipodi="http://sodipodi.sourceforge.net/DTD/sodipodi-0.dtd"
    width="192pt"
    height="153.6pt"
    viewBox="0 0 192 153.6">
<defs/>
<path id="shape0" transform="matrix(1.17155456879362 0 0 1.17155456879362 -0.107318737990425 26.8957564208483)" fill="#000000" fill-rule="evenodd" stroke="#000000" stroke-width="0.3" stroke-linecap="square" stroke-linejoin="bevel" d="M27.8472 0.0417L0.0583 0.1872L0.2083 9.6372L0.7988 9.6256L1.38 9.6195L1.9518 9.6188L2.5143 9.6236L3.0673 9.6338L3.611 9.6494L4.1453 9.6705L4.6703 9.6971L5.1858 9.729L5.692 9.7664L6.1889 9.8093L6.6763 9.8576L7.1544 9.9113L7.6231 9.9705L8.0824 10.0352L8.5324 10.1052L8.973 10.1807L9.4042 10.2617L9.8261 10.3481L10.2385 10.4399L10.6416 10.5372L11.0354 10.6399L11.4197 10.7481L11.7947 10.8617L12.1603 10.9807L12.5165 11.1052L12.8634 11.2352L13.2009 11.3705L13.529 11.5113L13.8478 11.6576L14.1571 11.8093L14.4571 11.9664L14.7478 12.129L15.029 12.2971L15.3009 12.4705L15.5634 12.6494L15.8165 12.8338L16.0603 13.0236L16.2947 13.2188L16.5197 13.4195L16.7354 13.6256L16.9416 13.8372L17.1385 14.0542L17.3261 14.2767L17.5042 14.5045L17.673 14.7379L17.8324 14.9767L17.9824 15.2209L18.1231 15.4705L18.2544 15.7256L18.3763 15.9862L18.4889 16.2522L18.592 16.5236L18.6858 16.8005L18.7703 17.0828L18.8453 17.3705L18.911 17.6637L18.9673 17.9624L19.0143 18.2664L19.0518 18.576L19.08 18.8909L19.0988 19.2113L19.1083 19.5372L19.113 19.8691L19.1177 20.2077L19.1222 20.553L19.1267 20.905L19.1312 21.2637L19.1355 21.629L19.1398 22.0011L19.144 22.3798L19.1481 22.7653L19.1521 23.1574L19.1561 23.5562L19.16 23.9617L19.1638 24.3739L19.1676 24.7928L19.1712 25.2183L19.1748 25.6506L19.1783 26.0895L19.1818 26.5352L19.1851 26.9875L19.1884 27.4465L19.1916 27.9122L19.1948 28.3846L19.1978 28.8637L19.2008 29.3494L19.2037 29.8419L19.2066 30.3411L19.2093 30.8469L19.212 31.3594L19.2146 31.8786L19.2171 32.4045L19.2196 32.9371L19.222 33.4764L19.2243 34.0224L19.2265 34.5751L19.2287 35.1344L19.2307 35.7005L19.2327 36.2732L19.2347 36.8526L19.2365 37.4387L19.2383 38.0315L19.24 38.631L19.2416 39.2372L19.2432 39.8501L19.2447 40.4696L19.2461 41.0959L19.2474 41.7288L19.2486 42.3684L19.2498 43.0147L19.2509 43.6678L19.2519 44.3274L19.2529 44.9938L19.2537 45.6669L19.2545 46.3467L19.2552 47.0331L19.2559 47.7263L19.2564 48.4261L19.2569 49.1326L19.2574 49.8458L19.2577 50.5657L19.258 51.2923L19.2581 51.9614L19.2 51.9614L19.1999 52.6022L19.1998 53.2202L19.1996 53.8161L19.1994 54.3904L19.199 54.9436L19.1986 55.4764L19.1981 55.9893L19.1975 56.4829L19.1969 56.9578L19.1962 57.4146L19.1954 57.8538L19.1945 58.276L19.1936 58.6819L19.1926 59.0719L19.1915 59.4466L19.1903 59.8067L19.189 60.1527L19.1877 60.4851L19.1863 60.8047L19.1848 61.1122L19.1833 61.4072L19.1817 61.6912L19.18 61.9652L19.1782 62.2282L19.1763 62.4822L19.1744 62.7272L19.1724 62.9642L19.1703 63.1932L19.1682 63.4152L19.166 63.6312L19.1636 63.8402L19.1613 64.0442L19.1588 64.2432L19.1563 64.4382L19.1537 64.6292L19.151 64.8172L19.1482 65.0022L19.1454 65.1852L19.1425 65.3672L19.1395 65.5492L19.1364 65.7302L19.1333 65.9112L19.1301 66.0932L19.1268 66.2772L19.1234 66.4632L19.12 66.6522L19.1165 66.8442L19.1129 67.0392L19.1092 67.2392L19.1055 67.4442L19.1017 67.6552L19.0978 67.8712L19.0938 68.0952L19.0898 68.3252L19.0856 68.5642L19.0814 68.8112L19.0772 69.0662L19.0728 69.3322L19.0684 69.6082L19.0639 69.8942L19.0593 70.1922L19.0547 70.5022L19.05 70.8242L19.0405 71.1502L19.0217 71.4702L18.9935 71.7852L18.9559 72.0942L18.909 72.3982L18.8527 72.6972L18.787 72.9902L18.7119 73.2782L18.6275 73.5602L18.5337 73.8372L18.4305 74.1092L18.318 74.3752L18.1961 74.6352L18.0648 74.8902L17.9241 75.1402L17.7741 75.3842L17.6147 75.6232L17.4459 75.8562L17.2677 76.0842L17.0802 76.3072L16.8833 76.5242L16.677 76.7352L16.4614 76.9412L16.2364 77.1422L16.002 77.3372L15.7582 77.5272L15.5051 77.7112L15.2426 77.8902L14.9707 78.0642L14.6894 78.2322L14.3988 78.3942L14.0988 78.5522L13.7894 78.7032L13.4707 78.8502L13.1426 78.9902L12.8051 79.1262L12.4582 79.2562L12.102 79.3802L11.7364 79.4992L11.3614 79.6132L10.977 79.7212L10.5833 79.8242L10.1802 79.9212L9.7677 80.0132L9.3459 80.0992L8.9147 80.1802L8.4741 80.2562L8.0241 80.3262L7.5648 80.3902L7.0961 80.4502L6.618 80.5032L6.1305 80.5522L5.6337 80.5942L5.1275 80.6322L4.6119 80.6642L4.087 80.6902L3.5527 80.7112L3.009 80.7272L2.4559 80.7372L1.8935 80.7422L1.3217 80.7412L0.7405 80.7352L0.15 80.7242L0 90.1742L28.6503 90.3242L28.6503 90.2832L56.5553 90.1372L56.4053 80.6872L55.8153 80.6982L55.2343 80.7042L54.6623 80.7052L54.1003 80.7002L53.5463 80.6902L53.0033 80.6742L52.4683 80.6532L51.9443 80.6272L51.4283 80.5952L50.9223 80.5572L50.4253 80.5142L49.9373 80.4662L49.4593 80.4122L48.9913 80.3532L48.5313 80.2892L48.0813 80.2182L47.6413 80.1432L47.2103 80.0622L46.7883 79.9762L46.3753 79.8842L45.9723 79.7872L45.5783 79.6842L45.1943 79.5762L44.8193 79.4622L44.4533 79.3432L44.0973 79.2182L43.7503 79.0892L43.4133 78.9532L43.0853 78.8122L42.7663 78.6662L42.4573 78.5142L42.1573 78.3572L41.8663 78.1952L41.5853 78.0272L41.3133 77.8532L41.0503 77.6742L40.7973 77.4902L40.5533 77.3002L40.3193 77.1052L40.0943 76.9042L39.8783 76.6982L39.6723 76.4872L39.4753 76.2692L39.2883 76.0472L39.1103 75.8192L38.9413 75.5862L38.7813 75.3472L38.6313 75.1032L38.4913 74.8532L38.3593 74.5982L38.2373 74.3382L38.1253 74.0722L38.0223 73.8002L37.9283 73.5232L37.8443 73.2412L37.7683 72.9532L37.7033 72.6602L37.6463 72.3612L37.6003 72.0572L37.5623 71.7482L37.5343 71.4332L37.5153 71.1122L37.5053 70.7872L37.5013 70.4642L37.4963 70.1552L37.4923 69.8572L37.4873 69.5712L37.4833 69.2952L37.4783 69.0292L37.4743 68.7732L37.4703 68.5262L37.4663 68.2882L37.4623 68.0572L37.4583 67.8342L37.4543 67.6172L37.4503 67.4072L37.4463 67.2022L37.4433 67.0022L37.4393 66.8062L37.4353 66.6152L37.4323 66.4262L37.4293 66.2402L37.4253 66.0562L37.4223 65.8742L37.4193 65.6932L37.4163 65.5122L37.4133 65.3302L37.4103 65.1482L37.4073 64.9652L37.4043 64.7792L37.4023 64.5912L37.3993 64.4002L37.3973 64.2062L37.3943 64.0072L37.3923 63.8032L37.3903 63.5932L37.3873 63.3782L37.3853 63.1562L37.3833 62.9272L37.3813 62.6902L37.3793 62.4452L37.3773 62.1912L37.3753 61.9282L37.3743 61.6542L37.3723 61.3702L37.3713 61.0742L37.3693 60.7675L37.3683 60.448L37.3663 60.1155L37.3653 59.7695L37.3643 59.4094L37.3633 59.0347L37.3623 58.6447L37.3613 58.2389L37.3603 57.8166L37.3593 57.3774L37.3593 56.9207L37.3583 56.4458L37.3573 55.9521L37.3573 55.4392L37.3563 54.9064L37.3563 54.3532L37.3563 53.7789L37.3563 53.1831L37.3563 52.565L37.3553 51.9242L37.2973 51.9242L37.2983 51.5953L37.2983 50.9451L37.2983 50.296L37.2993 49.648L37.2993 49.0013L37.3003 48.356L37.3003 47.7123L37.3013 47.0703L37.3023 46.4302L37.3033 45.7922L37.3043 45.1564L37.3053 44.5229L37.3063 43.8919L37.3073 43.2635L37.3083 42.638L37.3093 42.0153L37.3113 41.3958L37.3123 40.7796L37.3143 40.1667L37.3153 39.5574L37.3173 38.9518L37.3193 38.35L37.3213 37.7523L37.3233 37.1587L37.3253 36.5694L37.3273 35.9846L37.3293 35.4044L37.3313 34.8289L37.3333 34.2584L37.3363 33.6929L37.3383 33.1327L37.3413 32.5778L37.3433 32.0284L37.3463 31.4847L37.3493 30.9468L37.3523 30.4149L37.3553 29.8891L37.3583 29.3696L37.3613 28.8565L37.3643 28.35L37.3673 27.8502L37.3703 27.3573L37.3743 26.8715L37.3773 26.3928L37.3813 25.9214L37.3843 25.4575L37.3883 25.0013L37.3923 24.5528L37.3953 24.1123L37.3993 23.6798L37.4033 23.2556L37.4073 22.8398L37.4113 22.4326L37.4163 22.034L37.4203 21.6443L37.4243 21.2635L37.4293 20.8919L37.4333 20.5296L37.4383 20.1768L37.4423 19.8335L37.4473 19.5L37.4573 19.1742L37.4753 18.8538L37.5043 18.5388L37.5413 18.2293L37.5883 17.9252L37.6443 17.6266L37.7103 17.3334L37.7853 17.0456L37.8703 16.7633L37.9633 16.4864L38.0673 16.215L38.1793 15.949L38.3013 15.6885L38.4323 15.4334L38.5733 15.1837L38.7233 14.9395L38.8823 14.7007L39.0513 14.4674L39.2293 14.2395L39.4173 14.017L39.6143 13.8L39.8203 13.5885L40.0363 13.3823L40.2613 13.1817L40.4953 12.9864L40.7393 12.7966L40.9923 12.6123L41.2553 12.4334L41.5263 12.2599L41.8083 12.0919L42.0983 11.9293L42.3983 11.7721L42.7083 11.6204L43.0263 11.4742L43.3553 11.3334L43.6923 11.198L44.0393 11.0681L44.3953 10.9436L44.7613 10.8245L45.1363 10.7109L45.5203 10.6028L45.9143 10.5L46.3173 10.4028L46.7293 10.3109L47.1513 10.2245L47.5823 10.1436L48.0233 10.0681L48.4733 9.998L48.9323 9.9334L49.4013 9.8742L49.8793 9.8204L50.3673 9.7721L50.8633 9.7293L51.3703 9.6919L51.8853 9.6599L52.4103 9.6334L52.9443 9.6123L53.4883 9.5966L54.0413 9.5864L54.6043 9.5817L55.1753 9.5823L55.7573 9.5885L56.3473 9.6L56.4973 0.15L27.8475 0L27.8472 0.0417" sodipodi:nodetypes="ccccccccccccccccccccccccccccccccccccccccccccccccccccccccccccccccccccccccccccccccccccccccccccccccccccccccccccccccccccccccccccccccccccccccccccccccccccccccccccccccccccccccccccccccccccccccccccccccccccccccccccccccccccccccccccccccccccccccccccccccccccccccccccccccccccccccccccccccccccccccccccccccccccccccccccccccccccccccccccccccccccccccccccccccccccccccccccccccccccccccccccccccccccccccccccccccccccccccccccccccccccccccccccccccccccccccccccccccccccccccccccccccccccccccccccccccccccccccccccccccccccccccccccccccccccccccccccccccc"/><path id="shape01" transform="matrix(1.17155456879362 0 0 1.17155456879362 62.0731901253663 26.8961354086857)" fill="#000000" fill-rule="evenodd" stroke="#000000" stroke-width="0.3" stroke-linecap="square" stroke-linejoin="bevel" d="M27.8472 0.0417L0.0583 0.1872L0.2083 9.6372L0.7988 9.6256L1.38 9.6195L1.9518 9.6188L2.5143 9.6236L3.0673 9.6338L3.611 9.6494L4.1453 9.6705L4.6703 9.6971L5.1858 9.729L5.692 9.7664L6.1889 9.8093L6.6763 9.8576L7.1544 9.9113L7.6231 9.9705L8.0824 10.0352L8.5324 10.1052L8.973 10.1807L9.4042 10.2617L9.8261 10.3481L10.2385 10.4399L10.6416 10.5372L11.0354 10.6399L11.4197 10.7481L11.7947 10.8617L12.1603 10.9807L12.5165 11.1052L12.8634 11.2352L13.2009 11.3705L13.529 11.5113L13.8478 11.6576L14.1571 11.8093L14.4571 11.9664L14.7478 12.129L15.029 12.2971L15.3009 12.4705L15.5634 12.6494L15.8165 12.8338L16.0603 13.0236L16.2947 13.2188L16.5197 13.4195L16.7354 13.6256L16.9416 13.8372L17.1385 14.0542L17.3261 14.2767L17.5042 14.5045L17.673 14.7379L17.8324 14.9767L17.9824 15.2209L18.1231 15.4705L18.2544 15.7256L18.3763 15.9862L18.4889 16.2522L18.592 16.5236L18.6858 16.8005L18.7703 17.0828L18.8453 17.3705L18.911 17.6637L18.9673 17.9624L19.0143 18.2664L19.0518 18.576L19.08 18.8909L19.0988 19.2113L19.1083 19.5372L19.113 19.8691L19.1177 20.2077L19.1222 20.553L19.1267 20.905L19.1312 21.2637L19.1355 21.629L19.1398 22.0011L19.144 22.3798L19.1481 22.7653L19.1521 23.1574L19.1561 23.5562L19.16 23.9617L19.1638 24.3739L19.1676 24.7928L19.1712 25.2183L19.1748 25.6506L19.1783 26.0895L19.1818 26.5352L19.1851 26.9875L19.1884 27.4465L19.1916 27.9122L19.1948 28.3846L19.1978 28.8637L19.2008 29.3494L19.2037 29.8419L19.2066 30.3411L19.2093 30.8469L19.212 31.3594L19.2146 31.8786L19.2171 32.4045L19.2196 32.9371L19.222 33.4764L19.2243 34.0224L19.2265 34.5751L19.2287 35.1344L19.2307 35.7005L19.2327 36.2732L19.2347 36.8526L19.2365 37.4387L19.2383 38.0315L19.24 38.631L19.2416 39.2372L19.2432 39.8501L19.2447 40.4696L19.2461 41.0959L19.2474 41.7288L19.2486 42.3684L19.2498 43.0147L19.2509 43.6678L19.2519 44.3274L19.2529 44.9938L19.2537 45.6669L19.2545 46.3467L19.2552 47.0331L19.2559 47.7263L19.2564 48.4261L19.2569 49.1326L19.2574 49.8458L19.2577 50.5657L19.258 51.2923L19.2581 51.9614L19.2 51.9614L19.1999 52.6022L19.1998 53.2202L19.1996 53.8161L19.1994 54.3904L19.199 54.9436L19.1986 55.4764L19.1981 55.9893L19.1975 56.4829L19.1969 56.9578L19.1962 57.4146L19.1954 57.8538L19.1945 58.276L19.1936 58.6819L19.1926 59.0719L19.1915 59.4466L19.1903 59.8067L19.189 60.1527L19.1877 60.4851L19.1863 60.8047L19.1848 61.1122L19.1833 61.4072L19.1817 61.6912L19.18 61.9652L19.1782 62.2282L19.1763 62.4822L19.1744 62.7272L19.1724 62.9642L19.1703 63.1932L19.1682 63.4152L19.166 63.6312L19.1636 63.8402L19.1613 64.0442L19.1588 64.2432L19.1563 64.4382L19.1537 64.6292L19.151 64.8172L19.1482 65.0022L19.1454 65.1852L19.1425 65.3672L19.1395 65.5492L19.1364 65.7302L19.1333 65.9112L19.1301 66.0932L19.1268 66.2772L19.1234 66.4632L19.12 66.6522L19.1165 66.8442L19.1129 67.0392L19.1092 67.2392L19.1055 67.4442L19.1017 67.6552L19.0978 67.8712L19.0938 68.0952L19.0898 68.3252L19.0856 68.5642L19.0814 68.8112L19.0772 69.0662L19.0728 69.3322L19.0684 69.6082L19.0639 69.8942L19.0593 70.1922L19.0547 70.5022L19.05 70.8242L19.0405 71.1502L19.0217 71.4702L18.9935 71.7852L18.9559 72.0942L18.909 72.3982L18.8527 72.6972L18.787 72.9902L18.7119 73.2782L18.6275 73.5602L18.5337 73.8372L18.4305 74.1092L18.318 74.3752L18.1961 74.6352L18.0648 74.8902L17.9241 75.1402L17.7741 75.3842L17.6147 75.6232L17.4459 75.8562L17.2677 76.0842L17.0802 76.3072L16.8833 76.5242L16.677 76.7352L16.4614 76.9412L16.2364 77.1422L16.002 77.3372L15.7582 77.5272L15.5051 77.7112L15.2426 77.8902L14.9707 78.0642L14.6894 78.2322L14.3988 78.3942L14.0988 78.5522L13.7894 78.7032L13.4707 78.8502L13.1426 78.9902L12.8051 79.1262L12.4582 79.2562L12.102 79.3802L11.7364 79.4992L11.3614 79.6132L10.977 79.7212L10.5833 79.8242L10.1802 79.9212L9.7677 80.0132L9.3459 80.0992L8.9147 80.1802L8.4741 80.2562L8.0241 80.3262L7.5648 80.3902L7.0961 80.4502L6.618 80.5032L6.1305 80.5522L5.6337 80.5942L5.1275 80.6322L4.6119 80.6642L4.087 80.6902L3.5527 80.7112L3.009 80.7272L2.4559 80.7372L1.8935 80.7422L1.3217 80.7412L0.7405 80.7352L0.15 80.7242L0 90.1742L28.6503 90.3242L28.6503 90.2832L56.5553 90.1372L56.4053 80.6872L55.8153 80.6982L55.2343 80.7042L54.6623 80.7052L54.1003 80.7002L53.5463 80.6902L53.0033 80.6742L52.4683 80.6532L51.9443 80.6272L51.4283 80.5952L50.9223 80.5572L50.4253 80.5142L49.9373 80.4662L49.4593 80.4122L48.9913 80.3532L48.5313 80.2892L48.0813 80.2182L47.6413 80.1432L47.2103 80.0622L46.7883 79.9762L46.3753 79.8842L45.9723 79.7872L45.5783 79.6842L45.1943 79.5762L44.8193 79.4622L44.4533 79.3432L44.0973 79.2182L43.7503 79.0892L43.4133 78.9532L43.0853 78.8122L42.7663 78.6662L42.4573 78.5142L42.1573 78.3572L41.8663 78.1952L41.5853 78.0272L41.3133 77.8532L41.0503 77.6742L40.7973 77.4902L40.5533 77.3002L40.3193 77.1052L40.0943 76.9042L39.8783 76.6982L39.6723 76.4872L39.4753 76.2692L39.2883 76.0472L39.1103 75.8192L38.9413 75.5862L38.7813 75.3472L38.6313 75.1032L38.4913 74.8532L38.3593 74.5982L38.2373 74.3382L38.1253 74.0722L38.0223 73.8002L37.9283 73.5232L37.8443 73.2412L37.7683 72.9532L37.7033 72.6602L37.6463 72.3612L37.6003 72.0572L37.5623 71.7482L37.5343 71.4332L37.5153 71.1122L37.5053 70.7872L37.5013 70.4642L37.4963 70.1552L37.4923 69.8572L37.4873 69.5712L37.4833 69.2952L37.4783 69.0292L37.4743 68.7732L37.4703 68.5262L37.4663 68.2882L37.4623 68.0572L37.4583 67.8342L37.4543 67.6172L37.4503 67.4072L37.4463 67.2022L37.4433 67.0022L37.4393 66.8062L37.4353 66.6152L37.4323 66.4262L37.4293 66.2402L37.4253 66.0562L37.4223 65.8742L37.4193 65.6932L37.4163 65.5122L37.4133 65.3302L37.4103 65.1482L37.4073 64.9652L37.4043 64.7792L37.4023 64.5912L37.3993 64.4002L37.3973 64.2062L37.3943 64.0072L37.3923 63.8032L37.3903 63.5932L37.3873 63.3782L37.3853 63.1562L37.3833 62.9272L37.3813 62.6902L37.3793 62.4452L37.3773 62.1912L37.3753 61.9282L37.3743 61.6542L37.3723 61.3702L37.3713 61.0742L37.3693 60.7675L37.3683 60.448L37.3663 60.1155L37.3653 59.7695L37.3643 59.4094L37.3633 59.0347L37.3623 58.6447L37.3613 58.2389L37.3603 57.8166L37.3593 57.3774L37.3593 56.9207L37.3583 56.4458L37.3573 55.9521L37.3573 55.4392L37.3563 54.9064L37.3563 54.3532L37.3563 53.7789L37.3563 53.1831L37.3563 52.565L37.3553 51.9242L37.2973 51.9242L37.2983 51.5953L37.2983 50.9451L37.2983 50.296L37.2993 49.648L37.2993 49.0013L37.3003 48.356L37.3003 47.7123L37.3013 47.0703L37.3023 46.4302L37.3033 45.7922L37.3043 45.1564L37.3053 44.5229L37.3063 43.8919L37.3073 43.2635L37.3083 42.638L37.3093 42.0153L37.3113 41.3958L37.3123 40.7796L37.3143 40.1667L37.3153 39.5574L37.3173 38.9518L37.3193 38.35L37.3213 37.7523L37.3233 37.1587L37.3253 36.5694L37.3273 35.9846L37.3293 35.4044L37.3313 34.8289L37.3333 34.2584L37.3363 33.6929L37.3383 33.1327L37.3413 32.5778L37.3433 32.0284L37.3463 31.4847L37.3493 30.9468L37.3523 30.4149L37.3553 29.8891L37.3583 29.3696L37.3613 28.8565L37.3643 28.35L37.3673 27.8502L37.3703 27.3573L37.3743 26.8715L37.3773 26.3928L37.3813 25.9214L37.3843 25.4575L37.3883 25.0013L37.3923 24.5528L37.3953 24.1123L37.3993 23.6798L37.4033 23.2556L37.4073 22.8398L37.4113 22.4326L37.4163 22.034L37.4203 21.6443L37.4243 21.2635L37.4293 20.8919L37.4333 20.5296L37.4383 20.1768L37.4423 19.8335L37.4473 19.5L37.4573 19.1742L37.4753 18.8538L37.5043 18.5388L37.5413 18.2293L37.5883 17.9252L37.6443 17.6266L37.7103 17.3334L37.7853 17.0456L37.8703 16.7633L37.9633 16.4864L38.0673 16.215L38.1793 15.949L38.3013 15.6885L38.4323 15.4334L38.5733 15.1837L38.7233 14.9395L38.8823 14.7007L39.0513 14.4674L39.2293 14.2395L39.4173 14.017L39.6143 13.8L39.8203 13.5885L40.0363 13.3823L40.2613 13.1817L40.4953 12.9864L40.7393 12.7966L40.9923 12.6123L41.2553 12.4334L41.5263 12.2599L41.8083 12.0919L42.0983 11.9293L42.3983 11.7721L42.7083 11.6204L43.0263 11.4742L43.3553 11.3334L43.6923 11.198L44.0393 11.0681L44.3953 10.9436L44.7613 10.8245L45.1363 10.7109L45.5203 10.6028L45.9143 10.5L46.3173 10.4028L46.7293 10.3109L47.1513 10.2245L47.5823 10.1436L48.0233 10.0681L48.4733 9.998L48.9323 9.9334L49.4013 9.8742L49.8793 9.8204L50.3673 9.7721L50.8633 9.7293L51.3703 9.6919L51.8853 9.6599L52.4103 9.6334L52.9443 9.6123L53.4883 9.5966L54.0413 9.5864L54.6043 9.5817L55.1753 9.5823L55.7573 9.5885L56.3473 9.6L56.4973 0.15L27.8475 0L27.8472 0.0417" sodipodi:nodetypes="ccccccccccccccccccccccccccccccccccccccccccccccccccccccccccccccccccccccccccccccccccccccccccccccccccccccccccccccccccccccccccccccccccccccccccccccccccccccccccccccccccccccccccccccccccccccccccccccccccccccccccccccccccccccccccccccccccccccccccccccccccccccccccccccccccccccccccccccccccccccccccccccccccccccccccccccccccccccccccccccccccccccccccccccccccccccccccccccccccccccccccccccccccccccccccccccccccccccccccccccccccccccccccccccccccccccccccccccccccccccccccccccccccccccccccccccccccccccccccccccccccccccccccccccccccccccccccccccccc"/><path id="shape02" transform="matrix(1.17155456879362 0 0 1.17155456879362 125.90418962397 26.8961354086857)" fill="#000000" fill-rule="evenodd" stroke="#000000" stroke-width="0.3" stroke-linecap="square" stroke-linejoin="bevel" d="M27.8472 0.0417L0.0583 0.1872L0.2083 9.6372L0.7988 9.6256L1.38 9.6195L1.9518 9.6188L2.5143 9.6236L3.0673 9.6338L3.611 9.6494L4.1453 9.6705L4.6703 9.6971L5.1858 9.729L5.692 9.7664L6.1889 9.8093L6.6763 9.8576L7.1544 9.9113L7.6231 9.9705L8.0824 10.0352L8.5324 10.1052L8.973 10.1807L9.4042 10.2617L9.8261 10.3481L10.2385 10.4399L10.6416 10.5372L11.0354 10.6399L11.4197 10.7481L11.7947 10.8617L12.1603 10.9807L12.5165 11.1052L12.8634 11.2352L13.2009 11.3705L13.529 11.5113L13.8478 11.6576L14.1571 11.8093L14.4571 11.9664L14.7478 12.129L15.029 12.2971L15.3009 12.4705L15.5634 12.6494L15.8165 12.8338L16.0603 13.0236L16.2947 13.2188L16.5197 13.4195L16.7354 13.6256L16.9416 13.8372L17.1385 14.0542L17.3261 14.2767L17.5042 14.5045L17.673 14.7379L17.8324 14.9767L17.9824 15.2209L18.1231 15.4705L18.2544 15.7256L18.3763 15.9862L18.4889 16.2522L18.592 16.5236L18.6858 16.8005L18.7703 17.0828L18.8453 17.3705L18.911 17.6637L18.9673 17.9624L19.0143 18.2664L19.0518 18.576L19.08 18.8909L19.0988 19.2113L19.1083 19.5372L19.113 19.8691L19.1177 20.2077L19.1222 20.553L19.1267 20.905L19.1312 21.2637L19.1355 21.629L19.1398 22.0011L19.144 22.3798L19.1481 22.7653L19.1521 23.1574L19.1561 23.5562L19.16 23.9617L19.1638 24.3739L19.1676 24.7928L19.1712 25.2183L19.1748 25.6506L19.1783 26.0895L19.1818 26.5352L19.1851 26.9875L19.1884 27.4465L19.1916 27.9122L19.1948 28.3846L19.1978 28.8637L19.2008 29.3494L19.2037 29.8419L19.2066 30.3411L19.2093 30.8469L19.212 31.3594L19.2146 31.8786L19.2171 32.4045L19.2196 32.9371L19.222 33.4764L19.2243 34.0224L19.2265 34.5751L19.2287 35.1344L19.2307 35.7005L19.2327 36.2732L19.2347 36.8526L19.2365 37.4387L19.2383 38.0315L19.24 38.631L19.2416 39.2372L19.2432 39.8501L19.2447 40.4696L19.2461 41.0959L19.2474 41.7288L19.2486 42.3684L19.2498 43.0147L19.2509 43.6678L19.2519 44.3274L19.2529 44.9938L19.2537 45.6669L19.2545 46.3467L19.2552 47.0331L19.2559 47.7263L19.2564 48.4261L19.2569 49.1326L19.2574 49.8458L19.2577 50.5657L19.258 51.2923L19.2581 51.9614L19.2 51.9614L19.1999 52.6022L19.1998 53.2202L19.1996 53.8161L19.1994 54.3904L19.199 54.9436L19.1986 55.4764L19.1981 55.9893L19.1975 56.4829L19.1969 56.9578L19.1962 57.4146L19.1954 57.8538L19.1945 58.276L19.1936 58.6819L19.1926 59.0719L19.1915 59.4466L19.1903 59.8067L19.189 60.1527L19.1877 60.4851L19.1863 60.8047L19.1848 61.1122L19.1833 61.4072L19.1817 61.6912L19.18 61.9652L19.1782 62.2282L19.1763 62.4822L19.1744 62.7272L19.1724 62.9642L19.1703 63.1932L19.1682 63.4152L19.166 63.6312L19.1636 63.8402L19.1613 64.0442L19.1588 64.2432L19.1563 64.4382L19.1537 64.6292L19.151 64.8172L19.1482 65.0022L19.1454 65.1852L19.1425 65.3672L19.1395 65.5492L19.1364 65.7302L19.1333 65.9112L19.1301 66.0932L19.1268 66.2772L19.1234 66.4632L19.12 66.6522L19.1165 66.8442L19.1129 67.0392L19.1092 67.2392L19.1055 67.4442L19.1017 67.6552L19.0978 67.8712L19.0938 68.0952L19.0898 68.3252L19.0856 68.5642L19.0814 68.8112L19.0772 69.0662L19.0728 69.3322L19.0684 69.6082L19.0639 69.8942L19.0593 70.1922L19.0547 70.5022L19.05 70.8242L19.0405 71.1502L19.0217 71.4702L18.9935 71.7852L18.9559 72.0942L18.909 72.3982L18.8527 72.6972L18.787 72.9902L18.7119 73.2782L18.6275 73.5602L18.5337 73.8372L18.4305 74.1092L18.318 74.3752L18.1961 74.6352L18.0648 74.8902L17.9241 75.1402L17.7741 75.3842L17.6147 75.6232L17.4459 75.8562L17.2677 76.0842L17.0802 76.3072L16.8833 76.5242L16.677 76.7352L16.4614 76.9412L16.2364 77.1422L16.002 77.3372L15.7582 77.5272L15.5051 77.7112L15.2426 77.8902L14.9707 78.0642L14.6894 78.2322L14.3988 78.3942L14.0988 78.5522L13.7894 78.7032L13.4707 78.8502L13.1426 78.9902L12.8051 79.1262L12.4582 79.2562L12.102 79.3802L11.7364 79.4992L11.3614 79.6132L10.977 79.7212L10.5833 79.8242L10.1802 79.9212L9.7677 80.0132L9.3459 80.0992L8.9147 80.1802L8.4741 80.2562L8.0241 80.3262L7.5648 80.3902L7.0961 80.4502L6.618 80.5032L6.1305 80.5522L5.6337 80.5942L5.1275 80.6322L4.6119 80.6642L4.087 80.6902L3.5527 80.7112L3.009 80.7272L2.4559 80.7372L1.8935 80.7422L1.3217 80.7412L0.7405 80.7352L0.15 80.7242L0 90.1742L28.6503 90.3242L28.6503 90.2832L56.5553 90.1372L56.4053 80.6872L55.8153 80.6982L55.2343 80.7042L54.6623 80.7052L54.1003 80.7002L53.5463 80.6902L53.0033 80.6742L52.4683 80.6532L51.9443 80.6272L51.4283 80.5952L50.9223 80.5572L50.4253 80.5142L49.9373 80.4662L49.4593 80.4122L48.9913 80.3532L48.5313 80.2892L48.0813 80.2182L47.6413 80.1432L47.2103 80.0622L46.7883 79.9762L46.3753 79.8842L45.9723 79.7872L45.5783 79.6842L45.1943 79.5762L44.8193 79.4622L44.4533 79.3432L44.0973 79.2182L43.7503 79.0892L43.4133 78.9532L43.0853 78.8122L42.7663 78.6662L42.4573 78.5142L42.1573 78.3572L41.8663 78.1952L41.5853 78.0272L41.3133 77.8532L41.0503 77.6742L40.7973 77.4902L40.5533 77.3002L40.3193 77.1052L40.0943 76.9042L39.8783 76.6982L39.6723 76.4872L39.4753 76.2692L39.2883 76.0472L39.1103 75.8192L38.9413 75.5862L38.7813 75.3472L38.6313 75.1032L38.4913 74.8532L38.3593 74.5982L38.2373 74.3382L38.1253 74.0722L38.0223 73.8002L37.9283 73.5232L37.8443 73.2412L37.7683 72.9532L37.7033 72.6602L37.6463 72.3612L37.6003 72.0572L37.5623 71.7482L37.5343 71.4332L37.5153 71.1122L37.5053 70.7872L37.5013 70.4642L37.4963 70.1552L37.4923 69.8572L37.4873 69.5712L37.4833 69.2952L37.4783 69.0292L37.4743 68.7732L37.4703 68.5262L37.4663 68.2882L37.4623 68.0572L37.4583 67.8342L37.4543 67.6172L37.4503 67.4072L37.4463 67.2022L37.4433 67.0022L37.4393 66.8062L37.4353 66.6152L37.4323 66.4262L37.4293 66.2402L37.4253 66.0562L37.4223 65.8742L37.4193 65.6932L37.4163 65.5122L37.4133 65.3302L37.4103 65.1482L37.4073 64.9652L37.4043 64.7792L37.4023 64.5912L37.3993 64.4002L37.3973 64.2062L37.3943 64.0072L37.3923 63.8032L37.3903 63.5932L37.3873 63.3782L37.3853 63.1562L37.3833 62.9272L37.3813 62.6902L37.3793 62.4452L37.3773 62.1912L37.3753 61.9282L37.3743 61.6542L37.3723 61.3702L37.3713 61.0742L37.3693 60.7675L37.3683 60.448L37.3663 60.1155L37.3653 59.7695L37.3643 59.4094L37.3633 59.0347L37.3623 58.6447L37.3613 58.2389L37.3603 57.8166L37.3593 57.3774L37.3593 56.9207L37.3583 56.4458L37.3573 55.9521L37.3573 55.4392L37.3563 54.9064L37.3563 54.3532L37.3563 53.7789L37.3563 53.1831L37.3563 52.565L37.3553 51.9242L37.2973 51.9242L37.2983 51.5953L37.2983 50.9451L37.2983 50.296L37.2993 49.648L37.2993 49.0013L37.3003 48.356L37.3003 47.7123L37.3013 47.0703L37.3023 46.4302L37.3033 45.7922L37.3043 45.1564L37.3053 44.5229L37.3063 43.8919L37.3073 43.2635L37.3083 42.638L37.3093 42.0153L37.3113 41.3958L37.3123 40.7796L37.3143 40.1667L37.3153 39.5574L37.3173 38.9518L37.3193 38.35L37.3213 37.7523L37.3233 37.1587L37.3253 36.5694L37.3273 35.9846L37.3293 35.4044L37.3313 34.8289L37.3333 34.2584L37.3363 33.6929L37.3383 33.1327L37.3413 32.5778L37.3433 32.0284L37.3463 31.4847L37.3493 30.9468L37.3523 30.4149L37.3553 29.8891L37.3583 29.3696L37.3613 28.8565L37.3643 28.35L37.3673 27.8502L37.3703 27.3573L37.3743 26.8715L37.3773 26.3928L37.3813 25.9214L37.3843 25.4575L37.3883 25.0013L37.3923 24.5528L37.3953 24.1123L37.3993 23.6798L37.4033 23.2556L37.4073 22.8398L37.4113 22.4326L37.4163 22.034L37.4203 21.6443L37.4243 21.2635L37.4293 20.8919L37.4333 20.5296L37.4383 20.1768L37.4423 19.8335L37.4473 19.5L37.4573 19.1742L37.4753 18.8538L37.5043 18.5388L37.5413 18.2293L37.5883 17.9252L37.6443 17.6266L37.7103 17.3334L37.7853 17.0456L37.8703 16.7633L37.9633 16.4864L38.0673 16.215L38.1793 15.949L38.3013 15.6885L38.4323 15.4334L38.5733 15.1837L38.7233 14.9395L38.8823 14.7007L39.0513 14.4674L39.2293 14.2395L39.4173 14.017L39.6143 13.8L39.8203 13.5885L40.0363 13.3823L40.2613 13.1817L40.4953 12.9864L40.7393 12.7966L40.9923 12.6123L41.2553 12.4334L41.5263 12.2599L41.8083 12.0919L42.0983 11.9293L42.3983 11.7721L42.7083 11.6204L43.0263 11.4742L43.3553 11.3334L43.6923 11.198L44.0393 11.0681L44.3953 10.9436L44.7613 10.8245L45.1363 10.7109L45.5203 10.6028L45.9143 10.5L46.3173 10.4028L46.7293 10.3109L47.1513 10.2245L47.5823 10.1436L48.0233 10.0681L48.4733 9.998L48.9323 9.9334L49.4013 9.8742L49.8793 9.8204L50.3673 9.7721L50.8633 9.7293L51.3703 9.6919L51.8853 9.6599L52.4103 9.6334L52.9443 9.6123L53.4883 9.5966L54.0413 9.5864L54.6043 9.5817L55.1753 9.5823L55.7573 9.5885L56.3473 9.6L56.4973 0.15L27.8475 0L27.8472 0.0417" sodipodi:nodetypes="ccccccccccccccccccccccccccccccccccccccccccccccccccccccccccccccccccccccccccccccccccccccccccccccccccccccccccccccccccccccccccccccccccccccccccccccccccccccccccccccccccccccccccccccccccccccccccccccccccccccccccccccccccccccccccccccccccccccccccccccccccccccccccccccccccccccccccccccccccccccccccccccccccccccccccccccccccccccccccccccccccccccccccccccccccccccccccccccccccccccccccccccccccccccccccccccccccccccccccccccccccccccccccccccccccccccccccccccccccccccccccccccccccccccccccccccccccccccccccccccccccccccccccccccccccccccccccccccccc"/>
</svg>
