<?xml version="1.0" standalone="no"?>
<!DOCTYPE svg PUBLIC "-//W3C//DTD SVG 20010904//EN" "http://www.w3.org/TR/2001/REC-SVG-20010904/DTD/svg10.dtd">
<!-- Created using Krita: https://krita.org -->
<svg xmlns="http://www.w3.org/2000/svg" 
    xmlns:xlink="http://www.w3.org/1999/xlink"
    xmlns:krita="http://krita.org/namespaces/svg/krita"
    xmlns:sodipodi="http://sodipodi.sourceforge.net/DTD/sodipodi-0.dtd"
    width="192pt"
    height="153.6pt"
    viewBox="0 0 192 153.6">
<defs/>
<path id="shape0" transform="translate(40.7954622187082, 26.9624998472435)" fill="#ffffff" fill-rule="evenodd" stroke="#ffffff" stroke-width="0.3" stroke-linecap="square" stroke-linejoin="bevel" d="M79.7908 3.82031e-07L79.7908 4.80656C83.9239 4.7369 85.9209 5.57282 85.7815 7.31433C73.2103 34.0262 58.4377 78.5599 51.9857 80.9825C49.7018 80.816 39.8074 56.1555 22.3026 7.00086C21.5183 4.80656 27.3604 4.80656 31.102 4.80656L31.102 0L0 0L0.278641 4.52792C4.96352 4.86693 7.61942 5.69124 8.24637 7.00086C24.6512 39.8365 49.3233 104.115 52.1126 104.437C53.8913 103.578 76.9029 37.4426 89.6477 7.73229C91.5564 5.79574 96.7229 4.72761 105.147 4.52792L105.426 3.82031e-07L79.7908 3.82031e-07" sodipodi:nodetypes="ccccccccccccccc"/>
</svg>
